<svg width="803" height="795" viewBox="0 0 803 795" fill="none" xmlns="http://www.w3.org/2000/svg">
<path d="M222 3H28C14.1929 3 3 14.1929 3 28V217M193 31H57C43.1929 31 32 42.1929 32 56V189" stroke="white" stroke-width="5"/>
<path d="M581 3H775C788.807 3 800 14.1929 800 28V217M610 31H746C759.807 31 771 42.1929 771 56V189" stroke="white" stroke-width="5"/>
<path d="M581 792H775C788.807 792 800 780.807 800 767V578M610 764H746C759.807 764 771 752.807 771 739V606" stroke="white" stroke-width="5"/>
<path d="M222 792H28C14.1929 792 3 780.807 3 767V578M193 764H57C43.1929 764 32 752.807 32 739V606" stroke="white" stroke-width="5"/>
</svg>
